<?xml version="1.0" encoding="UTF-8"?>
<svg width="20px" height="18px" viewBox="0 0 20 18" version="1.1" xmlns="http://www.w3.org/2000/svg" xmlns:xlink="http://www.w3.org/1999/xlink">
    <title>04-iconos/01-24x24_/General icons/Página web Davivienda</title>
    <g id="Propuesta" stroke="none" stroke-width="1" fill="none" fill-rule="evenodd">
        <g id="Icono-Davivivienda" transform="translate(-6.000000, -7.000000)" fill="#E1111C" fill-rule="nonzero">
            <g id="04-iconos/01-24x24_/General-icons/Página-web-Davivienda" transform="translate(6.000000, 7.000000)">
                <g id="Daviweb" transform="translate(0.000000, 0.000000)">
                    <path d="M17,2 L3,2 C2.44771525,2 2,2.44771525 2,3 L2,13 C2,13.5522847 2.44771525,14 3,14 L17,14 C17.5522847,14 18,13.5522847 18,13 L18,3 C18,2.44771525 17.5522847,2 17,2 Z M14,7.11 C13.83,7.53 13.27,7.57 12.9,7.54 C12.9607522,7.86607477 13.1016476,8.17192086 13.31,8.43 C13.6844037,8.8219809 13.7687499,9.40838741 13.52,9.89 C13.2876061,10.5357272 12.6858242,10.9751864 12,11 C11.7023803,11.0183186 11.403953,10.9810152 11.12,10.89 C10.8034465,11.0242106 10.4638003,11.0955363 10.12,11.1 L10,11.1 C9.63956897,11.1 9.28270557,11.0286273 8.95,10.89 C8.64391932,10.9900266 8.32083949,11.0274358 8,11 C7.30647308,10.9705139 6.70249422,10.5175297 6.48,9.86 C6.23973431,9.38037389 6.33228581,8.80092099 6.71,8.42 C6.92021793,8.16808466 7.05842626,7.86402634 7.11,7.54 C6.7,7.54 6.17,7.54 6.01,7.11 C5.90978951,6.83246458 5.95887741,6.52293137 6.14,6.29 C6.23232075,6.17859592 6.34007471,6.0809439 6.46,6 L7.26,5.4 L8.26,4.74 C8.79846081,4.40525691 9.38537335,4.15565043 10,4 C10.4958611,4.08699159 10.9708439,4.26680653 11.4,4.53 C11.4118311,4.48641187 11.4322282,4.44561779 11.46,4.41 C11.6326574,4.23706727 11.8803921,4.16199616 12.12,4.21 L12.21,4.21 C12.43,4.21 12.75,4.21 12.9,4.43 C12.9641089,4.55562719 12.9641089,4.70437281 12.9,4.83 C12.8366206,5.03445063 12.7996539,5.24616874 12.79,5.46 L13.48,5.99 C13.5914172,6.07460648 13.6892179,6.17577962 13.77,6.29 C13.9898158,6.50132786 14.0778478,6.81518114 14,7.11 Z" id="Shape"></path>
                    <path d="M18,1 C18.5522847,1 19,1.44771525 19,2 L19,14.05 C19,14.6022847 18.5522847,15.05 18,15.05 L2,15.05 C1.44771525,15.05 1,14.6022847 1,14.05 L1,2 C1,1.44771525 1.44771525,1 2,1 L18,1 M18,0 L2,0 C0.8954305,0 0,0.8954305 0,2 L0,14.05 C0,15.1545695 0.8954305,16.05 2,16.05 L18,16.05 C19.1045695,16.05 20,15.1545695 20,14.05 L20,2 C20,0.8954305 19.1045695,0 18,0 Z" id="Shape"></path>
                    <path d="M15.54,18 L4.43,18 C4.15385763,18 3.93,17.7761424 3.93,17.5 C3.93,17.2238576 4.15385763,17 4.43,17 L15.54,17 C15.8161424,17 16.04,17.2238576 16.04,17.5 C16.04,17.7761424 15.8161424,18 15.54,18 Z" id="Path"></path>
                </g>
            </g>
        </g>
    </g>
</svg>