<?xml version="1.0" standalone="no"?>
<!DOCTYPE svg PUBLIC "-//W3C//DTD SVG 20010904//EN"
 "http://www.w3.org/TR/2001/REC-SVG-20010904/DTD/svg10.dtd">
<svg version="1.0" xmlns="http://www.w3.org/2000/svg"
 width="512.000000pt" height="512.000000pt" viewBox="0 0 512.000000 512.000000"
 preserveAspectRatio="xMidYMid meet">
<metadata>
Created by potrace 1.16, written by Peter Selinger 2001-2019
</metadata>
<g transform="translate(0.000000,512.000000) scale(0.100000,-0.100000)"
fill="#000000" stroke="none">
<path d="M2405 4693 c-525 -43 -990 -257 -1355 -623 -369 -368 -580 -830 -622
-1357 -53 -670 235 -1352 752 -1785 805 -674 1955 -674 2760 0 517 433 805
1115 752 1785 -61 771 -502 1425 -1192 1766 -332 164 -739 244 -1095 214z
m382 -448 c488 -69 913 -336 1188 -745 73 -109 165 -299 203 -420 134 -424
104 -860 -88 -1255 -287 -593 -877 -965 -1530 -965 -648 0 -1240 371 -1526
955 -300 614 -208 1325 240 1854 256 303 646 517 1050 576 123 18 339 18 463
0z"/>
<path d="M2480 3619 c-45 -18 -90 -60 -113 -102 l-22 -42 0 -595 0 -595 25
-45 c14 -24 45 -58 68 -75 40 -27 51 -30 122 -30 71 0 82 3 122 30 23 17 54
51 68 75 l25 45 0 595 0 595 -25 45 c-14 24 -44 58 -68 74 -36 25 -54 31 -110
33 -37 2 -78 -2 -92 -8z"/>
<path d="M2465 1903 c-173 -91 -159 -341 24 -402 132 -44 265 38 287 178 13
84 -38 181 -117 221 -48 25 -150 26 -194 3z"/>
</g>
</svg>
